<?xml version="1.0" encoding="utf-8"?>
<!-- Generator: Adobe Illustrator 19.0.0, SVG Export Plug-In . SVG Version: 6.00 Build 0)  -->
<svg version="1.1" id="Livello_1" xmlns="http://www.w3.org/2000/svg" xmlns:xlink="http://www.w3.org/1999/xlink" x="0px" y="0px"
	 viewBox="0 0 1600 562.7" style="enable-background:new 0 0 1600 562.7;" xml:space="preserve">
<style type="text/css">
	.st0{fill:#D84B14;}
	.st1{fill:#E64411;}
</style>
<g>
	<path id="XMLID_7_" class="st0" d="M969.4,135.2c0,1.6-0.4,3.2-1.1,5c-2.3,5.3-6.9,9.4-13.7,12.5c-5.6,2.5-11.3,3.8-16.9,3.8
		c-4.5,0-8.5-1-11.9-2.9c-3.5-1.9-5.3-4.7-5.3-8.2c0-1.6,0.4-3.3,1.1-5.3c2.3-5,6.9-9.1,13.7-12.2c5.6-2.7,11.3-4.1,16.9-4.1
		c4.5,0,8.5,1,11.9,2.9C967.6,128.7,969.4,131.5,969.4,135.2z"/>
	<g>
		<path id="XMLID_6_" class="st1" d="M1559.4,417.3c12.9,1.5,23-1.9,30.4-8.3c-7.5,7.1-18,11.5-31.7,13.1
			c-25.7,2.9-32.3-17-38.5-29.4c-6.5-13.1-15.1-12.8-28.1-11.5c-24.6,2.4-81,30.8-92.6,31.6c-11.6,0.8-17.7-7.4-25-26.8
			c-6.5-17.3-23.9-27.4-46.5-26.3c0,0-430.9-8.5-527.2-8.3c4.3-0.3,9.5-0.6,15.9-0.6c241.2,0,357.3-3.5,360.1-3.6
			c3,0,150.8-3,167.4-0.4c12.3,2,22.6,4.6,30.9,12.6c9.6,9.2,12,20,17.9,28.3c4.7,6.6,15.2,3.3,15.2,3.3s55.9-19.2,63.2-20.5
			c15.5-2.9,42.7-10.4,55.7,11.3C1535.4,396.4,1543.9,415.4,1559.4,417.3z"/>
		<path id="XMLID_5_" class="st1" d="M682.9,478c7,40.9-63.9,57.8-120.8,35.2c-60.1-23.9-119.7-52.2-199.7-1.9
			C270,569.4,1.1,652.6,1.1,286.1c0,0-0.7-39,12.2-88.1c-11,51.5-7.3,94.1-7.3,94.1S2.3,381.8,45,461.9
			c35.3,66.2,113.3,99.4,199.4,80.7c87.3-18.9,110.1-64.6,181.3-79.2c56.9-11.7,91.4,9.2,134.4,27.9c40.1,17.4,103.8,19.7,103.8-7.6
			c0-20.4-34.5-20.8-52.4-26.3c-24.9-7.7-47.9-23.9-48.9-51.3c-1.2-33.8,34.6-47.5,34.6-47.5s-44.3,24.8-22.6,59.9
			C603.4,465.1,676.8,441.9,682.9,478z"/>
		<path class="st1" d="M811.9,291.2c0.7,0.2,13.6,3.3,43.1-15.6l46.8-104.7l41,22.8l-33.2,74.1c0,0-5.9,9.8-1.9,12.6
			c3.9,2.8,10.9,2,22.3-4.2c0,0,10.4-32,22-53.1c11.6-21.1,30.5-41.7,51.1-44l46.8-0.6c0,0,27.8-2,20.7,28.2l-54.9,19.9l8.5-19.8
			c0,0,2.6-6.6-5.9-6.8c0,0-5.7-0.7-10.1,6.1c-4.4,6.9-34.6,79-34.6,79s-3.2,8.8,6.2,8.8c9.4,0,36.5,4.1,76.3-21
			c0,0,21.7-79.6,75.3-92.7c0,0,26.8-7.5,41.9,10.5l3.3-7.5h34.1l-38.2,86.3c0,0-13.5,26.2,26.2,3.6l46.5-104l77.5,43.8
			c0,0,16.1,6.1,8,24.5c-8.1,18.4-15.6,35.4-15.6,35.4s-5.8,11.9,8.2,9.1c14-2.9,25.6-13,25.6-13l30.1-68.6l-14.2-0.5l8-17.8
			l13.9,0.1l46.8-107h53.5l-46.7,106.7l15.2,0.2l-8.2,18.2l-15.2-0.1l-34.3,79.1c0,0-2.8,13.9,29.8-6.9c0,0,5.1-14.3,6.3-16.9
			c1.2-2.6,9.5-21.4,9.7-21.8c0.2-0.4,8.2-17.3,9.2-19c1.1-1.8,7.7-11.5,11.2-15.2c3.5-3.7,11.3-11.2,16.9-14.2
			c5.7-3,16.9-8.2,29.8-7.7c12.9,0.5,42,0.6,42,0.6s18.1,1.5,15.4,21.1c0,0-6.6,27.4-14.9,41c-8.2,13.6-22.5,16.9-31.3,17
			c-8.8,0.1-40.6,0.1-40.6,0.1s-20.2,35.8-5.4,37.3l50.6,4.9c2.2,0.2,9.2,1.2,11.4,1.5c18.5,2.7,28.1,4.2,43.5,15.1
			c10.9,7.7,17.5,19.6,19.7,34.4c-9.7-41.7-68.4-47.1-133.3-34.7c-40.1,7.7-42.1-19.9-42.1-19.9c-5,2.2-20.1,13.9-51.7,19.4
			c-31.5,5.4-33.8-18.1-33.8-18.1c-36.2,21.7-62.9,18.8-62.9,18.8c-33.6-2.8-14-41.6-14-41.6s12.6-28.2,17.3-38.6
			s10.6-19.7,0.9-21.4c-9.7-1.7-8.2,4.8-21.8,26.6c-13.5,21.8-38.8,38.1-38.8,38.1c-38.5,32.3-68.6,36.5-83.2,37.1
			c-14.7,0.5-15-11.1-15-11.1c-0.9,1-11.4,11.9-37.8,10.8c-26.4-1.1-30.8-19.2-30.8-19.2c-32.4,18.8-52.6,19.3-52.6,19.3
			s-37.6,0.1-51.8-1.6c-14.2-1.7-20.8-15.2-20.8-15.2c-71.4,37.8-78.7,0-78.7,0c-110.7,46.3-120-13.6-120-13.6
			c-88.1,55.5-90.8,19.6-90.8,19.6c-35.6,26.4-65.4-0.7-65.4-0.7c-102.1,33.4-107.3,3-107.3,3L521,168.8
			c-18.3,19.4-115.9,144.3-115.9,144.3c-39.1,15.1-62.2-3.6-62.2-3.6l67.5-184.6L269.2,312.4c-43.1,16.8-62-7.6-62-7.6
			c10.1-30.3,96.6-253.9,96.6-253.9c-57.7-65.4-154.6-19.8-154.6-19.8c-24.2,8.2-44.4,19.8-61.2,33.6c31.2-29.6,73.5-52.7,131-61.2
			c0,0,103.9-15.6,148.2,18.8L309.4,171c0,0,94-106.5,106.4-120.5c12.4-14,34.4-20.6,49.9-9.8s18.7,27.4,8,53.2
			C463.1,119.2,422.8,215,421.5,218l92.8-107.5c0,0,32.6-34.9,60.4-19.3c27.9,15.6,15.4,40.2,10,56.1c-5.4,15.9-57,134.1-57,134.1
			s17.5,18.9,41.8,3.6c0,0,35.2-89.7,42-101.8h48.3l-42,94.6c0,0-6.9,16.7,1.9,16c8.8-0.7,14.6-15.9,21.3-31
			c6.7-15.1,40.7-91.8,40.7-91.8l41.1,22.6l-34.1,77.5c0,0-5.6,12.8,4.1,10.8c9.7-2,79.4-62.6,88.1-81.9c0,0-5.1-20.3,9.5-43.1
			c0,0,10-18.4,26.7-20.5c16.7-2.1,29.6,3.7,22.3,21.6s-21.6,32.5-21.6,32.5s24.5,28.4,27.1,48.2
			C847.7,258.6,831.6,276.6,811.9,291.2z M1521.5,205.8c0.2-1,0.3-1.8,0.3-2.3c0-3-2.1-4.5-6.2-4.5c-5.2,0-8.7,2.5-10.7,7.5
			l-13.9,30h16.7L1521.5,205.8z M1149.3,206.9c0.5-1,0.8-1.8,0.8-2.4c0-3.1-2.1-4.7-6.4-4.7c-5.5,0-9.2,2.4-11.2,7.3l-31.5,70.6
			c-1.4,3.8-2.2,7.2-2.2,10.3c0,3.3,1.5,4.9,4.3,4.9c5,0,9.5-4.5,13.5-13.5L1149.3,206.9z M794,242c0-7.6-1.5-13.4-4.6-17.5
			c-7.1,7.9-17.7,19.8-31.6,35.8c-1,4.1-1.5,8-1.5,11.8c0,7.4,2,11.1,6.1,11.1c12.2,0,21.2-6.5,27-19.4
			C792.5,256.8,794,249.6,794,242z"/>
	</g>
</g>
</svg>
